<svg width="28" height="28" viewBox="0 0 28 28" fill="none" xmlns="http://www.w3.org/2000/svg">
<g id="Frame 14">
<path id="Vector" d="M23.7263 10.7194C23.5826 9.28595 23.2808 6.31128 20.85 3.8803C19.7369 2.76728 18.3619 1.95745 16.7717 1.4734C15.6041 1.11966 14.5828 1.02128 13.9326 1H13.8541C12.2916 1.05452 9.31966 1.50002 6.94043 3.88299C4.50959 6.30985 4.20641 9.2886 4.06411 10.718C3.37264 17.4959 8.43517 23.246 11.5164 26.0678C12.1932 26.6901 13.0443 27 13.8953 27C14.7464 27 15.5975 26.6902 16.2783 26.0678C19.1613 23.4229 23.7915 18.2033 23.7915 11.9814C23.7915 11.5625 23.7716 11.1436 23.7263 10.7181L23.7263 10.7194ZM18.1504 11.1037C18.1504 13.4495 16.2409 15.3591 13.8951 15.3591C11.5494 15.3591 9.63982 13.4495 9.63982 11.1037C9.63982 8.75802 11.5494 6.84844 13.8951 6.84844C16.2409 6.84844 18.1504 8.75802 18.1504 11.1037Z" fill="black"/>
</g>
</svg>
