<svg width="28" height="28" viewBox="0 0 28 28" fill="none" xmlns="http://www.w3.org/2000/svg">
<g id="Frame 12">
<g id="Group">
<g id="Group 1">
<path id="Vector" d="M15.2325 18.1174C14.3192 18.7959 13.2757 19.2788 12.1674 19.5359C11.0307 19.8018 9.85282 19.842 8.70062 19.6543C7.52814 19.4628 6.40502 19.0416 5.39568 18.415C3.33098 17.1251 1.85171 15.0798 1.27316 12.7151C0.834458 10.9298 0.925726 9.05526 1.5358 7.321C2.14587 5.58674 3.24828 4.06794 4.70811 2.95047C6.64581 1.45062 9.09611 0.773961 11.5289 1.06689C13.9154 1.33991 16.0967 2.54688 17.5957 4.42383C18.3221 5.32571 18.8604 6.36402 19.1788 7.47744C19.6506 9.09887 19.6264 10.8244 19.1095 12.432C18.942 12.9466 18.7232 13.4431 18.4566 13.914C17.9401 14.8346 17.2341 15.6352 16.3852 16.2627C16.9779 15.4563 17.4283 14.5545 17.717 13.5962C17.8567 13.1362 17.9534 12.6643 18.0059 12.1864C18.161 10.8048 17.9383 9.40697 17.3617 8.1419C16.627 6.53521 15.3289 5.25354 13.7129 4.53939C12.9411 4.19997 12.1139 4.00417 11.2718 3.9616C10.4355 3.91678 9.59821 4.02647 8.80174 4.28516C8.0223 4.53544 7.29564 4.92717 6.65814 5.44074C6.02254 5.95434 5.4852 6.5788 5.07212 7.28388C4.66214 7.98892 4.38595 8.76364 4.25744 9.56903C3.99522 11.2109 4.34806 12.8917 5.24834 14.2896C5.69888 14.9972 6.2745 15.6168 6.94704 16.1183C7.63242 16.6273 8.40483 17.0071 9.22641 17.2392C10.0704 17.4817 10.9514 17.5688 11.8265 17.4963C12.7318 17.4221 13.6174 17.1914 14.4438 16.8145C14.9381 16.5589 15.4569 16.3537 15.9923 16.202C16.3419 16.1414 16.5268 16.28 16.4083 16.6816C16.164 17.2641 15.7554 17.763 15.2325 18.1174Z" fill="black"/>
<path id="Vector_2" d="M26.0343 26.8766C25.7455 26.7264 25.5028 26.5617 25.2514 26.3942C25.1243 26.3104 25.0001 26.2237 24.8759 26.137C24.7517 26.0504 24.6303 25.9637 24.509 25.8742C24.0236 25.5159 23.5585 25.1404 23.105 24.7532C22.2004 23.9767 21.3392 23.1512 20.5251 22.2803C19.696 21.4125 18.924 20.4919 18.214 19.5243C17.8615 19.036 17.5206 18.5334 17.2058 18.0105C17.1249 17.8776 17.0497 17.7447 16.9717 17.6118C16.8937 17.4789 16.8186 17.3431 16.7464 17.2045C16.5949 16.9228 16.458 16.6335 16.3362 16.3378C16.6319 16.4596 16.9212 16.5965 17.2029 16.748C17.3415 16.8202 17.4744 16.8982 17.6102 16.9733L18.0089 17.2073C18.5318 17.5222 19.0344 17.8631 19.5227 18.2156C20.4903 18.9256 21.4109 19.6976 22.2787 20.5267C23.1489 21.3415 23.9744 22.2027 24.7517 23.1066C25.1388 23.5601 25.5143 24.0252 25.8726 24.5106C25.9621 24.6319 26.0488 24.7532 26.1355 24.8775C26.2221 25.0017 26.3088 25.1259 26.3926 25.253C26.5601 25.5044 26.7248 25.7615 26.8721 26.0359C27.1119 26.4722 26.9993 26.9026 26.6237 26.9893C26.4201 27.0211 26.2118 26.9813 26.0343 26.8766Z" fill="black"/>
</g>
</g>
</g>
</svg>
